{"asset":{"generator":"Khronos glTF Blender I/O v3.6.27","version":"2.0"},"scene":0,"scenes":[{"name":"Scene","nodes":[0]}],"nodes":[{"mesh":0,"name":"concrete_road_barrier"}],"materials":[{"doubleSided":true,"name":"concrete_road_barrier","normalTexture":{"index":0},"pbrMetallicRoughness":{"baseColorTexture":{"index":1},"metallicFactor":0,"metallicRoughnessTexture":{"index":2}}}],"meshes":[{"name":"RetopoFlow.006","primitives":[{"attributes":{"POSITION":0,"NORMAL":1,"TEXCOORD_0":2},"indices":3,"material":0}]}],"textures":[{"sampler":0,"source":0},{"sampler":0,"source":1},{"sampler":0,"source":2}],"images":[{"mimeType":"image/jpeg","name":"concrete_road_barrier_nor_gl","uri":"textures/concrete_road_barrier_nor_gl_1k.jpg"},{"mimeType":"image/jpeg","name":"concrete_road_barrier_diff","uri":"textures/concrete_road_barrier_diff_1k.jpg"},{"mimeType":"image/jpeg","name":"concrete_road_barrier_rough","uri":"textures/concrete_road_barrier_arm_1k.jpg"}],"accessors":[{"bufferView":2,"componentType":5126,"count":1346,"max":[0.7719113826751709,0.8051173686981201,0.3412483334541321],"min":[-0.7755694389343262,-0.008269553072750568,-0.2915783226490021],"type":"VEC3","byteOffset":0},{"bufferView":0,"componentType":5126,"count":1346,"type":"VEC3","byteOffset":0},{"bufferView":1,"componentType":5126,"count":1346,"type":"VEC2","byteOffset":0},{"bufferView":3,"componentType":5123,"count":10500,"type":"SCALAR","byteOffset":0,"normalized":false}],"bufferViews":[{"buffer":0,"byteOffset":0,"byteLength":16152,"target":34962},{"buffer":0,"byteOffset":16152,"byteLength":10768,"target":34962},{"buffer":0,"byteOffset":26920,"byteLength":16152,"target":34962},{"buffer":0,"byteOffset":43072,"byteLength":21000,"target":34963}],"samplers":[{"magFilter":9729,"minFilter":9987}],"buffers":[{"byteLength":64072,"uri":"concrete_road_barrier.bin"}]}