{"asset":{"generator":"Khronos glTF Blender I/O v5.1.20","version":"2.0"},"scene":0,"scenes":[{"name":"Scene","nodes":[0,1,2,3,4,5,6,7,8,9]}],"nodes":[{"mesh":0,"name":"old_military_crate_lid_a","translation":[-0.35402026772499084,0.2509384751319885,-0.22201603651046753]},{"mesh":1,"name":"old_military_crate_loop_a","translation":[-0.5,0.20923833549022675,0.22309820353984833]},{"mesh":2,"name":"old_military_crate_latch_a","translation":[-0.5,0.2271214872598648,0.22715239226818085]},{"mesh":3,"name":"old_military_crate_cloth_a","translation":[-0.5,0.02412991225719452,0]},{"mesh":4,"name":"old_military_crate_a","translation":[-0.5,0,0]},{"mesh":0,"name":"old_military_crate_lid_b","rotation":[0.9955394864082336,0,0,0.09434600174427032],"translation":[0.6459797620773315,0.2509384751319885,-0.22201603651046753]},{"mesh":1,"name":"old_military_crate_loop_b","rotation":[0.9830907583236694,0,0,0.183118999004364],"translation":[0.5,0.20923833549022675,0.22309820353984833]},{"mesh":2,"name":"old_military_crate_latch_b","translation":[0.5,0.2271214872598648,0.22715239226818085]},{"mesh":3,"name":"old_military_crate_cloth_b","translation":[0.5,0.02412991225719452,0]},{"mesh":4,"name":"old_military_crate_b","translation":[0.5,0,0]}],"materials":[{"doubleSided":true,"name":"military_crate_m_01","normalTexture":{"index":0},"pbrMetallicRoughness":{"baseColorTexture":{"index":1},"metallicRoughnessTexture":{"index":2}}}],"meshes":[{"name":"Mesh.005","primitives":[{"attributes":{"POSITION":0,"NORMAL":1,"TEXCOORD_0":2},"indices":3,"material":0}]},{"name":"NurbsPath","primitives":[{"attributes":{"POSITION":4,"NORMAL":5,"TEXCOORD_0":6},"indices":7,"material":0}]},{"name":"Cube.006","primitives":[{"attributes":{"POSITION":8,"NORMAL":9,"TEXCOORD_0":10},"indices":11,"material":0}]},{"name":"Cloth_MFlat.002","primitives":[{"attributes":{"POSITION":12,"NORMAL":13,"TEXCOORD_0":14},"indices":15,"material":0}]},{"name":"Mesh.015","primitives":[{"attributes":{"POSITION":16,"NORMAL":17,"TEXCOORD_0":18},"indices":19,"material":0}]}],"textures":[{"sampler":0,"source":0},{"sampler":0,"source":1},{"sampler":0,"source":2}],"images":[{"mimeType":"image/jpeg","name":"old_military_crate_nor_gl","uri":"textures/old_military_crate_nor_gl_1k.jpg"},{"mimeType":"image/jpeg","name":"old_military_crate_diff","uri":"textures/old_military_crate_diff_1k.jpg"},{"mimeType":"image/jpeg","name":"old_military_crate_metal-old_military_crate_rough","uri":"textures/old_military_crate_arm_1k.jpg"}],"accessors":[{"bufferView":2,"componentType":5126,"count":304,"max":[0.2412514090538025,0.053535617887973785,0.45321014523506165],"min":[-0.5309795141220093,-0.00805695541203022,-0.00586674315854907],"type":"VEC3","byteOffset":0},{"bufferView":0,"componentType":5126,"count":304,"type":"VEC3","byteOffset":0},{"bufferView":1,"componentType":5126,"count":304,"type":"VEC2","byteOffset":0},{"bufferView":3,"componentType":5123,"count":1866,"type":"SCALAR","byteOffset":0,"normalized":false},{"bufferView":6,"componentType":5126,"count":78,"max":[0.21749579906463623,0.0603073313832283,0.0026064752601087093],"min":[-0.2180582582950592,-0.00280921533703804,-0.0033921441063284874],"type":"VEC3","byteOffset":0},{"bufferView":4,"componentType":5126,"count":78,"type":"VEC3","byteOffset":0},{"bufferView":5,"componentType":5126,"count":78,"type":"VEC2","byteOffset":0},{"bufferView":7,"componentType":5123,"count":564,"type":"SCALAR","byteOffset":0,"normalized":false},{"bufferView":10,"componentType":5126,"count":136,"max":[0.2080405205488205,0.00891671609133482,0.011943000368773937],"min":[-0.20855645835399628,-0.10201673954725266,-0.008818019181489944],"type":"VEC3","byteOffset":0},{"bufferView":8,"componentType":5126,"count":136,"type":"VEC3","byteOffset":0},{"bufferView":9,"componentType":5126,"count":136,"type":"VEC2","byteOffset":0},{"bufferView":11,"componentType":5123,"count":966,"type":"SCALAR","byteOffset":0,"normalized":false},{"bufferView":14,"componentType":5126,"count":226,"max":[0.29900240898132324,0.23192746937274933,0.30846530199050903],"min":[-0.41047203540802,0.023332038894295692,-0.18723593652248383],"type":"VEC3","byteOffset":0},{"bufferView":12,"componentType":5126,"count":226,"type":"VEC3","byteOffset":0},{"bufferView":13,"componentType":5126,"count":226,"type":"VEC2","byteOffset":0},{"bufferView":15,"componentType":5123,"count":1545,"type":"SCALAR","byteOffset":0,"normalized":false},{"bufferView":18,"componentType":5126,"count":1004,"max":[0.41279393434524536,0.25174087285995483,0.2197253406047821],"min":[-0.40341851115226746,-0.004213925451040268,-0.21899999678134918],"type":"VEC3","byteOffset":0},{"bufferView":16,"componentType":5126,"count":1004,"type":"VEC3","byteOffset":0},{"bufferView":17,"componentType":5126,"count":1004,"type":"VEC2","byteOffset":0},{"bufferView":19,"componentType":5123,"count":7350,"type":"SCALAR","byteOffset":0,"normalized":false}],"bufferViews":[{"buffer":0,"byteOffset":0,"byteLength":3648,"target":34962},{"buffer":0,"byteOffset":3648,"byteLength":2432,"target":34962},{"buffer":0,"byteOffset":6080,"byteLength":3648,"target":34962},{"buffer":0,"byteOffset":9728,"byteLength":3732,"target":34963},{"buffer":0,"byteOffset":13460,"byteLength":936,"target":34962},{"buffer":0,"byteOffset":14396,"byteLength":624,"target":34962},{"buffer":0,"byteOffset":15020,"byteLength":936,"target":34962},{"buffer":0,"byteOffset":15956,"byteLength":1128,"target":34963},{"buffer":0,"byteOffset":17084,"byteLength":1632,"target":34962},{"buffer":0,"byteOffset":18716,"byteLength":1088,"target":34962},{"buffer":0,"byteOffset":19804,"byteLength":1632,"target":34962},{"buffer":0,"byteOffset":21436,"byteLength":1932,"target":34963},{"buffer":0,"byteOffset":23368,"byteLength":2712,"target":34962},{"buffer":0,"byteOffset":26080,"byteLength":1808,"target":34962},{"buffer":0,"byteOffset":27888,"byteLength":2712,"target":34962},{"buffer":0,"byteOffset":30600,"byteLength":3090,"target":34963},{"buffer":0,"byteOffset":33692,"byteLength":12048,"target":34962},{"buffer":0,"byteOffset":45740,"byteLength":8032,"target":34962},{"buffer":0,"byteOffset":53772,"byteLength":12048,"target":34962},{"buffer":0,"byteOffset":65820,"byteLength":14700,"target":34963}],"samplers":[{"magFilter":9729,"minFilter":9987}],"buffers":[{"byteLength":80520,"uri":"old_military_crate.bin"}]}