{"asset":{"generator":"Khronos glTF Blender I/O v5.1.20","version":"2.0"},"scene":0,"scenes":[{"name":"Scene","nodes":[0]}],"nodes":[{"mesh":0,"name":"plastic_crate_01"}],"materials":[{"doubleSided":true,"name":"plastic_crate_01","normalTexture":{"index":0},"pbrMetallicRoughness":{"baseColorTexture":{"index":1},"metallicRoughnessTexture":{"index":2}}}],"meshes":[{"name":"Cube.047","primitives":[{"attributes":{"POSITION":0,"NORMAL":1,"TEXCOORD_0":2},"indices":3,"material":0}]}],"textures":[{"sampler":0,"source":0},{"sampler":0,"source":1},{"sampler":0,"source":2}],"images":[{"mimeType":"image/jpeg","name":"plastic_crate_01_nor_gl","uri":"textures/plastic_crate_01_nor_gl_1k.jpg"},{"mimeType":"image/jpeg","name":"plastic_crate_01_diff","uri":"textures/plastic_crate_01_diff_1k.jpg"},{"mimeType":"image/jpeg","name":"plastic_crate_01_metal-plastic_crate_01_rough","uri":"textures/plastic_crate_01_arm_1k.jpg"}],"accessors":[{"bufferView":2,"componentType":5126,"count":818,"max":[0.14929936826229095,0.26465848088264465,0.20795081555843353],"min":[-0.1490204930305481,0.000464438897324726,-0.20400002598762512],"type":"VEC3","byteOffset":0},{"bufferView":0,"componentType":5126,"count":818,"type":"VEC3","byteOffset":0},{"bufferView":1,"componentType":5126,"count":818,"type":"VEC2","byteOffset":0},{"bufferView":3,"componentType":5123,"count":9714,"type":"SCALAR","byteOffset":0,"normalized":false}],"bufferViews":[{"buffer":0,"byteOffset":0,"byteLength":9816,"target":34962},{"buffer":0,"byteOffset":9816,"byteLength":6544,"target":34962},{"buffer":0,"byteOffset":16360,"byteLength":9816,"target":34962},{"buffer":0,"byteOffset":26176,"byteLength":19428,"target":34963}],"samplers":[{"magFilter":9729,"minFilter":9987}],"buffers":[{"byteLength":45604,"uri":"plastic_crate_01.bin"}]}