{"asset":{"generator":"Khronos glTF Blender I/O v5.1.20","version":"2.0"},"extensionsUsed":["KHR_materials_transmission","KHR_materials_specular"],"scene":0,"scenes":[{"name":"Scene","nodes":[0,1,2,3]}],"nodes":[{"mesh":0,"name":"portable_generator"},{"mesh":1,"name":"portable_generator_dial","rotation":[-0.10301912575960159,0,0,0.9946793913841248],"translation":[0.09225182980298996,0.41630613803863525,0.2403021901845932]},{"mesh":2,"name":"portable_generator_switch","translation":[-0.260182648897171,0.4379270672798157,0.23846513032913208]},{"mesh":3,"name":"portable_generator_toggle","rotation":[-0.10301912575960159,0,0,0.9946793913841248],"translation":[0.01236033532768488,0.4290839433670044,0.23424559831619263]}],"materials":[{"doubleSided":true,"extensions":{"KHR_materials_specular":{"specularTexture":{"index":0}}},"name":"portable_generator","normalTexture":{"index":1},"pbrMetallicRoughness":{"baseColorTexture":{"index":2},"metallicRoughnessTexture":{"index":3}}},{"alphaMode":"BLEND","doubleSided":true,"extensions":{"KHR_materials_transmission":{"transmissionFactor":1}},"name":"portable_generator_glass","normalTexture":{"index":4},"pbrMetallicRoughness":{"baseColorTexture":{"index":5},"metallicRoughnessTexture":{"index":6}}}],"meshes":[{"name":"Cube.023","primitives":[{"attributes":{"POSITION":0,"NORMAL":1,"TEXCOORD_0":2},"indices":3,"material":0},{"attributes":{"POSITION":4,"NORMAL":5,"TEXCOORD_0":6},"indices":7,"material":1}]},{"name":"Cylinder.061","primitives":[{"attributes":{"POSITION":8,"NORMAL":9,"TEXCOORD_0":10},"indices":11,"material":0}]},{"name":"Cube.050","primitives":[{"attributes":{"POSITION":12,"NORMAL":13,"TEXCOORD_0":14},"indices":15,"material":0}]},{"name":"Cube.057","primitives":[{"attributes":{"POSITION":16,"NORMAL":17,"TEXCOORD_0":18},"indices":19,"material":0}]}],"textures":[{"sampler":0,"source":0},{"sampler":0,"source":1},{"sampler":0,"source":2},{"sampler":0,"source":3},{"sampler":0,"source":1},{"sampler":0,"source":4},{"sampler":0,"source":3}],"images":[{"mimeType":"image/jpeg","name":"portable_generator_spec","uri":"textures/portable_generator_spec_1k.jpg"},{"mimeType":"image/jpeg","name":"portable_generator_nor_gl","uri":"textures/portable_generator_nor_gl_1k.jpg"},{"mimeType":"image/jpeg","name":"portable_generator_diff","uri":"textures/portable_generator_diff_1k.jpg"},{"mimeType":"image/jpeg","name":"portable_generator_metal-portable_generator_rough","uri":"textures/portable_generator_arm_1k.jpg"},{"mimeType":"image/jpeg","name":"portable_generator_diff-portable_generator_alpha","uri":"textures/portable_generator_diff_1k.jpg"}],"accessors":[{"bufferView":2,"componentType":5126,"count":2192,"max":[0.4388411045074463,0.5770302414894104,0.2922561764717102],"min":[-0.47969725728034973,0.0012902263551950455,-0.3003307282924652],"type":"VEC3","byteOffset":0},{"bufferView":0,"componentType":5126,"count":2192,"type":"VEC3","byteOffset":0},{"bufferView":1,"componentType":5126,"count":2192,"type":"VEC2","byteOffset":0},{"bufferView":3,"componentType":5123,"count":14901,"type":"SCALAR","byteOffset":0,"normalized":false},{"bufferView":6,"componentType":5126,"count":11,"max":[0.1184760332107544,0.4559117555618286,0.24540503323078156],"min":[0.06611800938844681,0.40365728735923767,0.22974446415901184],"type":"VEC3","byteOffset":0},{"bufferView":4,"componentType":5126,"count":11,"type":"VEC3","byteOffset":0},{"bufferView":5,"componentType":5126,"count":11,"type":"VEC2","byteOffset":0},{"bufferView":7,"componentType":5123,"count":42,"type":"SCALAR","byteOffset":0,"normalized":false},{"bufferView":16,"componentType":5126,"count":43,"max":[0.007228550035506487,0.02711115963757038,0.0033472839277237654],"min":[-0.0033062135335057974,-0.003314283210784197,-0.0019415192073211074],"type":"VEC3","byteOffset":0},{"bufferView":17,"componentType":5126,"count":43,"type":"VEC3","byteOffset":0},{"bufferView":18,"componentType":5126,"count":43,"type":"VEC2","byteOffset":0},{"bufferView":19,"componentType":5123,"count":114,"type":"SCALAR","byteOffset":0},{"bufferView":10,"componentType":5126,"count":13,"max":[0.013297328725457191,0.010860837064683437,0.016947828233242035],"min":[-0.013297284953296185,-0.009099133312702179,-0.021281449124217033],"type":"VEC3","byteOffset":0},{"bufferView":8,"componentType":5126,"count":13,"type":"VEC3","byteOffset":0},{"bufferView":9,"componentType":5126,"count":13,"type":"VEC2","byteOffset":0},{"bufferView":11,"componentType":5123,"count":45,"type":"SCALAR","byteOffset":0,"normalized":false},{"bufferView":14,"componentType":5126,"count":19,"max":[0.004067804664373398,0.003014195943251252,0.012876811437308788],"min":[-0.004067804664373398,-0.003014195943251252,-0.0013534952886402607],"type":"VEC3","byteOffset":0},{"bufferView":12,"componentType":5126,"count":19,"type":"VEC3","byteOffset":0},{"bufferView":13,"componentType":5126,"count":19,"type":"VEC2","byteOffset":0},{"bufferView":15,"componentType":5123,"count":120,"type":"SCALAR","byteOffset":0,"normalized":false}],"bufferViews":[{"buffer":0,"byteOffset":0,"byteLength":26304,"target":34962},{"buffer":0,"byteOffset":26304,"byteLength":17536,"target":34962},{"buffer":0,"byteOffset":43840,"byteLength":26304,"target":34962},{"buffer":0,"byteOffset":70144,"byteLength":29802,"target":34963},{"buffer":0,"byteOffset":99948,"byteLength":132,"target":34962},{"buffer":0,"byteOffset":100080,"byteLength":88,"target":34962},{"buffer":0,"byteOffset":100168,"byteLength":132,"target":34962},{"buffer":0,"byteOffset":100300,"byteLength":84,"target":34963},{"buffer":0,"byteOffset":100384,"byteLength":156,"target":34962},{"buffer":0,"byteOffset":100540,"byteLength":104,"target":34962},{"buffer":0,"byteOffset":100644,"byteLength":156,"target":34962},{"buffer":0,"byteOffset":100800,"byteLength":90,"target":34963},{"buffer":0,"byteOffset":100892,"byteLength":228,"target":34962},{"buffer":0,"byteOffset":101120,"byteLength":152,"target":34962},{"buffer":0,"byteOffset":101272,"byteLength":228,"target":34962},{"buffer":0,"byteOffset":101500,"byteLength":240,"target":34963},{"buffer":0,"byteOffset":101740,"byteLength":516,"target":34962},{"buffer":0,"byteOffset":102256,"byteLength":516,"target":34962},{"buffer":0,"byteOffset":102772,"byteLength":344,"target":34962},{"buffer":0,"byteOffset":103116,"byteLength":228,"target":34962}],"samplers":[{"magFilter":9729,"minFilter":9987}],"buffers":[{"byteLength":103344,"uri":"portable_generator.bin"}]}