{"asset":{"generator":"Khronos glTF Blender I/O v3.6.27","version":"2.0"},"scene":0,"scenes":[{"name":"Scene","nodes":[0,1,2,3,4,5,6,7,8,9]}],"nodes":[{"mesh":0,"name":"fire_hydrant","translation":[-0.30000001192092896,0,0]},{"mesh":1,"name":"fire_hydrant_cap_01","translation":[-0.30000001192092896,0,0]},{"mesh":2,"name":"fire_hydrant_cap_02","translation":[-0.30000001192092896,0,0]},{"mesh":3,"name":"fire_hydrant_cap_03","translation":[-0.30000001192092896,0,0]},{"mesh":4,"name":"fire_hydrant_chain","translation":[-0.30000001192092896,0,0]},{"mesh":5,"name":"fire_hydrant_aged","translation":[0.30000001192092896,0,0]},{"mesh":6,"name":"fire_hydrant_cap_01_aged","translation":[0.30000001192092896,0,0]},{"mesh":7,"name":"fire_hydrant_cap_02_aged","translation":[0.30000001192092896,0,0]},{"mesh":8,"name":"fire_hydrant_cap_03_aged","translation":[0.30000001192092896,0,0]},{"mesh":9,"name":"fire_hydrant_chain_aged","translation":[0.30000001192092896,0,0]}],"materials":[{"doubleSided":true,"name":"fire_hydrant","normalTexture":{"index":0},"pbrMetallicRoughness":{"baseColorTexture":{"index":1},"metallicRoughnessTexture":{"index":2}}},{"doubleSided":true,"name":"fire_hydrant_aged","normalTexture":{"index":3},"pbrMetallicRoughness":{"baseColorTexture":{"index":4},"metallicRoughnessTexture":{"index":5}}}],"meshes":[{"name":"Cylinder.001","primitives":[{"attributes":{"POSITION":0,"NORMAL":1,"TEXCOORD_0":2},"indices":3,"material":0}]},{"name":"Cylinder.024","primitives":[{"attributes":{"POSITION":4,"NORMAL":5,"TEXCOORD_0":6},"indices":7,"material":0}]},{"name":"Cylinder.026","primitives":[{"attributes":{"POSITION":8,"NORMAL":9,"TEXCOORD_0":10},"indices":11,"material":0},{"attributes":{"POSITION":12,"NORMAL":13,"TEXCOORD_0":14},"indices":15,"material":0}]},{"name":"Cylinder.025","primitives":[{"attributes":{"POSITION":16,"NORMAL":17,"TEXCOORD_0":18},"indices":19,"material":0},{"attributes":{"POSITION":20,"NORMAL":21,"TEXCOORD_0":22},"indices":23,"material":0}]},{"name":"BezierCurve.040","primitives":[{"attributes":{"POSITION":24,"NORMAL":25,"TEXCOORD_0":26},"indices":27,"material":0}]},{"name":"Cylinder.006","primitives":[{"attributes":{"POSITION":28,"NORMAL":29,"TEXCOORD_0":30},"indices":3,"material":1}]},{"name":"Cylinder.007","primitives":[{"attributes":{"POSITION":31,"NORMAL":32,"TEXCOORD_0":33},"indices":7,"material":1}]},{"name":"Cylinder.009","primitives":[{"attributes":{"POSITION":34,"NORMAL":35,"TEXCOORD_0":36},"indices":11,"material":1},{"attributes":{"POSITION":37,"NORMAL":38,"TEXCOORD_0":39},"indices":15,"material":1}]},{"name":"Cylinder.008","primitives":[{"attributes":{"POSITION":40,"NORMAL":41,"TEXCOORD_0":42},"indices":19,"material":1},{"attributes":{"POSITION":43,"NORMAL":44,"TEXCOORD_0":45},"indices":23,"material":1}]},{"name":"BezierCurve.002","primitives":[{"attributes":{"POSITION":46,"NORMAL":47,"TEXCOORD_0":48},"indices":27,"material":1}]}],"textures":[{"sampler":0,"source":0},{"sampler":0,"source":1},{"sampler":0,"source":2},{"sampler":0,"source":3},{"sampler":0,"source":4},{"sampler":0,"source":5}],"images":[{"mimeType":"image/jpeg","name":"fire_hydrant_nor_gl","uri":"textures/fire_hydrant_nor_gl_1k.jpg"},{"mimeType":"image/jpeg","name":"fire_hydrant_diff","uri":"textures/fire_hydrant_diff_1k.jpg"},{"mimeType":"image/jpeg","name":"fire_hydrant_metal-fire_hydrant_rough","uri":"textures/fire_hydrant_arm_1k.jpg"},{"mimeType":"image/jpeg","name":"fire_hydrant_aged_nor_gl","uri":"textures/fire_hydrant_aged_nor_gl_1k.jpg"},{"mimeType":"image/jpeg","name":"fire_hydrant_aged_diff","uri":"textures/fire_hydrant_aged_diff_1k.jpg"},{"mimeType":"image/jpeg","name":"fire_hydrant_aged_metal-fire_hydrant_aged_rough","uri":"textures/fire_hydrant_aged_arm_1k.jpg"}],"accessors":[{"bufferView":2,"componentType":5126,"count":221,"max":[0.12575487792491913,0.7961146235466003,0.1488693505525589],"min":[-0.12575486302375793,5.636924882423955e-08,-0.12575332820415497],"type":"VEC3","byteOffset":0},{"bufferView":0,"componentType":5126,"count":221,"type":"VEC3","byteOffset":0},{"bufferView":1,"componentType":5126,"count":221,"type":"VEC2","byteOffset":0},{"bufferView":31,"componentType":5123,"count":2760,"type":"SCALAR","byteOffset":0,"normalized":false},{"bufferView":6,"componentType":5126,"count":31,"max":[0.11329113692045212,0.5509819388389587,0.1736471951007843],"min":[-0.11457760632038116,0.3156373202800751,0.11509471386671066],"type":"VEC3","byteOffset":0},{"bufferView":4,"componentType":5126,"count":31,"type":"VEC3","byteOffset":0},{"bufferView":5,"componentType":5126,"count":31,"type":"VEC2","byteOffset":0},{"bufferView":35,"componentType":5123,"count":258,"type":"SCALAR","byteOffset":0,"normalized":false},{"bufferView":10,"componentType":5126,"count":30,"max":[0.1262640357017517,0.5966265201568604,0.09361906349658966],"min":[0.0768316462635994,0.5244618654251099,0.02486790344119072],"type":"VEC3","byteOffset":0},{"bufferView":8,"componentType":5126,"count":30,"type":"VEC3","byteOffset":0},{"bufferView":9,"componentType":5126,"count":30,"type":"VEC2","byteOffset":0},{"bufferView":39,"componentType":5123,"count":207,"type":"SCALAR","byteOffset":0,"normalized":false},{"bufferView":14,"componentType":5126,"count":10,"max":[0.1328335404396057,0.5742029547691345,0.08406030386686325],"min":[0.10854602605104446,0.5437201857566833,0.05253400281071663],"type":"VEC3","byteOffset":0},{"bufferView":12,"componentType":5126,"count":10,"type":"VEC3","byteOffset":0},{"bufferView":13,"componentType":5126,"count":10,"type":"VEC2","byteOffset":0},{"bufferView":43,"componentType":5123,"count":45,"type":"SCALAR","byteOffset":0,"normalized":false},{"bufferView":18,"componentType":5126,"count":33,"max":[-0.07800963521003723,0.6061010956764221,0.11108376085758209],"min":[-0.1374017298221588,0.5093887448310852,0.018030457198619843],"type":"VEC3","byteOffset":0},{"bufferView":16,"componentType":5126,"count":33,"type":"VEC3","byteOffset":0},{"bufferView":17,"componentType":5126,"count":33,"type":"VEC2","byteOffset":0},{"bufferView":47,"componentType":5123,"count":207,"type":"SCALAR","byteOffset":0,"normalized":false},{"bufferView":22,"componentType":5126,"count":10,"max":[-0.11165313422679901,0.5753370523452759,0.08982420712709427],"min":[-0.14001989364624023,0.5391652584075928,0.054381292313337326],"type":"VEC3","byteOffset":0},{"bufferView":20,"componentType":5126,"count":10,"type":"VEC3","byteOffset":0},{"bufferView":21,"componentType":5126,"count":10,"type":"VEC2","byteOffset":0},{"bufferView":51,"componentType":5123,"count":45,"type":"SCALAR","byteOffset":0,"normalized":false},{"bufferView":26,"componentType":5126,"count":327,"max":[0.11848465353250504,0.580050528049469,0.16843006014823914],"min":[-0.12636896967887878,0.19746267795562744,0.046471789479255676],"type":"VEC3","byteOffset":0},{"bufferView":24,"componentType":5126,"count":327,"type":"VEC3","byteOffset":0},{"bufferView":25,"componentType":5126,"count":327,"type":"VEC2","byteOffset":0},{"bufferView":55,"componentType":5123,"count":1746,"type":"SCALAR","byteOffset":0,"normalized":false},{"bufferView":30,"componentType":5126,"count":221,"max":[0.12575487792491913,0.7961146235466003,0.1488693505525589],"min":[-0.12575486302375793,5.636924882423955e-08,-0.12575332820415497],"type":"VEC3","byteOffset":0},{"bufferView":28,"componentType":5126,"count":221,"type":"VEC3","byteOffset":0},{"bufferView":29,"componentType":5126,"count":221,"type":"VEC2","byteOffset":0},{"bufferView":34,"componentType":5126,"count":31,"max":[0.11329113692045212,0.5509819388389587,0.1736471951007843],"min":[-0.11457760632038116,0.3156373202800751,0.11509471386671066],"type":"VEC3","byteOffset":0},{"bufferView":32,"componentType":5126,"count":31,"type":"VEC3","byteOffset":0},{"bufferView":33,"componentType":5126,"count":31,"type":"VEC2","byteOffset":0},{"bufferView":38,"componentType":5126,"count":30,"max":[0.1262640357017517,0.5966265201568604,0.09361906349658966],"min":[0.0768316462635994,0.5244618654251099,0.02486790344119072],"type":"VEC3","byteOffset":0},{"bufferView":36,"componentType":5126,"count":30,"type":"VEC3","byteOffset":0},{"bufferView":37,"componentType":5126,"count":30,"type":"VEC2","byteOffset":0},{"bufferView":42,"componentType":5126,"count":10,"max":[0.1328335404396057,0.5742029547691345,0.08406030386686325],"min":[0.10854602605104446,0.5437201857566833,0.05253400281071663],"type":"VEC3","byteOffset":0},{"bufferView":40,"componentType":5126,"count":10,"type":"VEC3","byteOffset":0},{"bufferView":41,"componentType":5126,"count":10,"type":"VEC2","byteOffset":0},{"bufferView":46,"componentType":5126,"count":33,"max":[-0.07800963521003723,0.6061010956764221,0.11108376085758209],"min":[-0.1374017298221588,0.5093887448310852,0.018030457198619843],"type":"VEC3","byteOffset":0},{"bufferView":44,"componentType":5126,"count":33,"type":"VEC3","byteOffset":0},{"bufferView":45,"componentType":5126,"count":33,"type":"VEC2","byteOffset":0},{"bufferView":50,"componentType":5126,"count":10,"max":[-0.11165313422679901,0.5753370523452759,0.08982420712709427],"min":[-0.14001989364624023,0.5391652584075928,0.054381292313337326],"type":"VEC3","byteOffset":0},{"bufferView":48,"componentType":5126,"count":10,"type":"VEC3","byteOffset":0},{"bufferView":49,"componentType":5126,"count":10,"type":"VEC2","byteOffset":0},{"bufferView":54,"componentType":5126,"count":327,"max":[0.11848465353250504,0.580050528049469,0.16843006014823914],"min":[-0.12636896967887878,0.19746267795562744,0.046471789479255676],"type":"VEC3","byteOffset":0},{"bufferView":52,"componentType":5126,"count":327,"type":"VEC3","byteOffset":0},{"bufferView":53,"componentType":5126,"count":327,"type":"VEC2","byteOffset":0}],"bufferViews":[{"buffer":0,"byteOffset":0,"byteLength":2652,"target":34962},{"buffer":0,"byteOffset":2652,"byteLength":1768,"target":34962},{"buffer":0,"byteOffset":4420,"byteLength":2652,"target":34962},{"buffer":0,"byteOffset":7072,"byteLength":5520,"target":34963},{"buffer":0,"byteOffset":12592,"byteLength":372,"target":34962},{"buffer":0,"byteOffset":12964,"byteLength":248,"target":34962},{"buffer":0,"byteOffset":13212,"byteLength":372,"target":34962},{"buffer":0,"byteOffset":13584,"byteLength":516,"target":34963},{"buffer":0,"byteOffset":14100,"byteLength":360,"target":34962},{"buffer":0,"byteOffset":14460,"byteLength":240,"target":34962},{"buffer":0,"byteOffset":14700,"byteLength":360,"target":34962},{"buffer":0,"byteOffset":15060,"byteLength":414,"target":34963},{"buffer":0,"byteOffset":15476,"byteLength":120,"target":34962},{"buffer":0,"byteOffset":15596,"byteLength":80,"target":34962},{"buffer":0,"byteOffset":15676,"byteLength":120,"target":34962},{"buffer":0,"byteOffset":15796,"byteLength":90,"target":34963},{"buffer":0,"byteOffset":15888,"byteLength":396,"target":34962},{"buffer":0,"byteOffset":16284,"byteLength":264,"target":34962},{"buffer":0,"byteOffset":16548,"byteLength":396,"target":34962},{"buffer":0,"byteOffset":16944,"byteLength":414,"target":34963},{"buffer":0,"byteOffset":17360,"byteLength":120,"target":34962},{"buffer":0,"byteOffset":17480,"byteLength":80,"target":34962},{"buffer":0,"byteOffset":17560,"byteLength":120,"target":34962},{"buffer":0,"byteOffset":17680,"byteLength":90,"target":34963},{"buffer":0,"byteOffset":17772,"byteLength":3924,"target":34962},{"buffer":0,"byteOffset":21696,"byteLength":2616,"target":34962},{"buffer":0,"byteOffset":24312,"byteLength":3924,"target":34962},{"buffer":0,"byteOffset":28236,"byteLength":3492,"target":34963},{"buffer":0,"byteOffset":31728,"byteLength":2652,"target":34962},{"buffer":0,"byteOffset":34380,"byteLength":1768,"target":34962},{"buffer":0,"byteOffset":36148,"byteLength":2652,"target":34962},{"buffer":0,"byteOffset":38800,"byteLength":5520,"target":34963},{"buffer":0,"byteOffset":44320,"byteLength":372,"target":34962},{"buffer":0,"byteOffset":44692,"byteLength":248,"target":34962},{"buffer":0,"byteOffset":44940,"byteLength":372,"target":34962},{"buffer":0,"byteOffset":45312,"byteLength":516,"target":34963},{"buffer":0,"byteOffset":45828,"byteLength":360,"target":34962},{"buffer":0,"byteOffset":46188,"byteLength":240,"target":34962},{"buffer":0,"byteOffset":46428,"byteLength":360,"target":34962},{"buffer":0,"byteOffset":46788,"byteLength":414,"target":34963},{"buffer":0,"byteOffset":47204,"byteLength":120,"target":34962},{"buffer":0,"byteOffset":47324,"byteLength":80,"target":34962},{"buffer":0,"byteOffset":47404,"byteLength":120,"target":34962},{"buffer":0,"byteOffset":47524,"byteLength":90,"target":34963},{"buffer":0,"byteOffset":47616,"byteLength":396,"target":34962},{"buffer":0,"byteOffset":48012,"byteLength":264,"target":34962},{"buffer":0,"byteOffset":48276,"byteLength":396,"target":34962},{"buffer":0,"byteOffset":48672,"byteLength":414,"target":34963},{"buffer":0,"byteOffset":49088,"byteLength":120,"target":34962},{"buffer":0,"byteOffset":49208,"byteLength":80,"target":34962},{"buffer":0,"byteOffset":49288,"byteLength":120,"target":34962},{"buffer":0,"byteOffset":49408,"byteLength":90,"target":34963},{"buffer":0,"byteOffset":49500,"byteLength":3924,"target":34962},{"buffer":0,"byteOffset":53424,"byteLength":2616,"target":34962},{"buffer":0,"byteOffset":56040,"byteLength":3924,"target":34962},{"buffer":0,"byteOffset":59964,"byteLength":3492,"target":34963}],"samplers":[{"magFilter":9729,"minFilter":9987}],"buffers":[{"byteLength":63456,"uri":"fire_hydrant.bin"}]}