{"asset":{"generator":"Khronos glTF Blender I/O v4.0.44","version":"2.0"},"scene":0,"scenes":[{"name":"Scene","nodes":[0]}],"nodes":[{"mesh":0,"name":"street_lamp_01"}],"materials":[{"doubleSided":true,"name":"street_lamp_01","normalTexture":{"index":0},"pbrMetallicRoughness":{"baseColorTexture":{"index":1},"metallicRoughnessTexture":{"index":2}}},{"alphaMode":"BLEND","doubleSided":true,"name":"street_lamp_01_glass","normalTexture":{"index":3},"pbrMetallicRoughness":{"baseColorTexture":{"index":4},"metallicRoughnessTexture":{"index":5}}},{"doubleSided":true,"name":"street_lamp_01_bulb","normalTexture":{"index":6},"pbrMetallicRoughness":{"baseColorTexture":{"index":7},"metallicRoughnessTexture":{"index":8}}}],"meshes":[{"name":"street_lamp_01_post_mesh","primitives":[{"attributes":{"POSITION":0,"NORMAL":1,"TEXCOORD_0":2},"indices":3,"material":0},{"attributes":{"POSITION":4,"NORMAL":5,"TEXCOORD_0":6},"indices":7,"material":1},{"attributes":{"POSITION":8,"NORMAL":9,"TEXCOORD_0":10},"indices":11,"material":2}]}],"textures":[{"sampler":0,"source":0},{"sampler":0,"source":1},{"sampler":0,"source":2},{"sampler":0,"source":0},{"sampler":0,"source":3},{"sampler":0,"source":2},{"sampler":0,"source":0},{"sampler":0,"source":1},{"sampler":0,"source":2}],"images":[{"mimeType":"image/jpeg","name":"street_lamp_01_nor_gl","uri":"textures/street_lamp_01_nor_gl_1k.jpg"},{"mimeType":"image/jpeg","name":"street_lamp_01_diff","uri":"textures/street_lamp_01_diff_1k.jpg"},{"mimeType":"image/jpeg","name":"street_lamp_01_metal-street_lamp_01_rough","uri":"textures/street_lamp_01_arm_1k.jpg"},{"mimeType":"image/jpeg","name":"street_lamp_01_diff-street_lamp_01_opacity","uri":"textures/street_lamp_01_diff_1k.jpg"}],"accessors":[{"bufferView":2,"componentType":5126,"count":1894,"max":[0.35135418176651,3.8726048469543457,0.19224393367767334],"min":[-0.35133102536201477,0.0,-0.19224391877651215],"type":"VEC3","byteOffset":0},{"bufferView":0,"componentType":5126,"count":1894,"type":"VEC3","byteOffset":0},{"bufferView":1,"componentType":5126,"count":1894,"type":"VEC2","byteOffset":0},{"bufferView":3,"componentType":5123,"count":16350,"type":"SCALAR","byteOffset":0,"normalized":false},{"bufferView":6,"componentType":5126,"count":29,"max":[0.17356261610984802,3.50935959815979,0.17380712926387787],"min":[-0.17356261610984802,3.137941598892212,-0.17388466000556946],"type":"VEC3","byteOffset":0},{"bufferView":4,"componentType":5126,"count":29,"type":"VEC3","byteOffset":0},{"bufferView":5,"componentType":5126,"count":29,"type":"VEC2","byteOffset":0},{"bufferView":7,"componentType":5123,"count":156,"type":"SCALAR","byteOffset":0,"normalized":false},{"bufferView":10,"componentType":5126,"count":15,"max":[0.02877308987081051,3.2976503372192383,0.02909371815621853],"min":[-0.028725579380989075,3.2271063327789307,-0.0294319037348032],"type":"VEC3","byteOffset":0},{"bufferView":8,"componentType":5126,"count":15,"type":"VEC3","byteOffset":0},{"bufferView":9,"componentType":5126,"count":15,"type":"VEC2","byteOffset":0},{"bufferView":11,"componentType":5123,"count":102,"type":"SCALAR","byteOffset":0,"normalized":false}],"bufferViews":[{"buffer":0,"byteOffset":0,"byteLength":22728,"target":34962},{"buffer":0,"byteOffset":22728,"byteLength":15152,"target":34962},{"buffer":0,"byteOffset":37880,"byteLength":22728,"target":34962},{"buffer":0,"byteOffset":60608,"byteLength":32700,"target":34963},{"buffer":0,"byteOffset":93308,"byteLength":348,"target":34962},{"buffer":0,"byteOffset":93656,"byteLength":232,"target":34962},{"buffer":0,"byteOffset":93888,"byteLength":348,"target":34962},{"buffer":0,"byteOffset":94236,"byteLength":312,"target":34963},{"buffer":0,"byteOffset":94548,"byteLength":180,"target":34962},{"buffer":0,"byteOffset":94728,"byteLength":120,"target":34962},{"buffer":0,"byteOffset":94848,"byteLength":180,"target":34962},{"buffer":0,"byteOffset":95028,"byteLength":204,"target":34963}],"samplers":[{"magFilter":9729,"minFilter":9987}],"buffers":[{"byteLength":95232,"uri":"street_lamp_01.bin"}]}