{"asset":{"generator":"Khronos glTF Blender I/O v5.1.18","version":"2.0"},"scene":0,"scenes":[{"name":"Scene","nodes":[0]}],"nodes":[{"mesh":0,"name":"metal_jerrycan"}],"materials":[{"doubleSided":true,"name":"metal_jerrycan","normalTexture":{"index":0},"pbrMetallicRoughness":{"baseColorTexture":{"index":1},"metallicRoughnessTexture":{"index":2}}}],"meshes":[{"name":"Cube.001","primitives":[{"attributes":{"POSITION":0,"NORMAL":1,"TEXCOORD_0":2},"indices":3,"material":0}]}],"textures":[{"sampler":0,"source":0},{"sampler":0,"source":1},{"sampler":0,"source":2}],"images":[{"mimeType":"image/jpeg","name":"metal_jerrycan_nor_gl","uri":"textures/metal_jerrycan_nor_gl_1k.jpg"},{"mimeType":"image/jpeg","name":"metal_jerrycan_diff","uri":"textures/metal_jerrycan_diff_1k.jpg"},{"mimeType":"image/jpeg","name":"metal_jerrycan_metal-metal_jerrycan_rough","uri":"textures/metal_jerrycan_arm_1k.jpg"}],"accessors":[{"bufferView":2,"componentType":5126,"count":1047,"max":[0.18015117943286896,0.45520496368408203,0.08349165320396423],"min":[-0.17025543749332428,6.935097917448729e-05,-0.08877655863761902],"type":"VEC3","byteOffset":0},{"bufferView":0,"componentType":5126,"count":1047,"type":"VEC3","byteOffset":0},{"bufferView":1,"componentType":5126,"count":1047,"type":"VEC2","byteOffset":0},{"bufferView":3,"componentType":5123,"count":7485,"type":"SCALAR","byteOffset":0,"normalized":false}],"bufferViews":[{"buffer":0,"byteOffset":0,"byteLength":12564,"target":34962},{"buffer":0,"byteOffset":12564,"byteLength":8376,"target":34962},{"buffer":0,"byteOffset":20940,"byteLength":12564,"target":34962},{"buffer":0,"byteOffset":33504,"byteLength":14970,"target":34963}],"samplers":[{"magFilter":9729,"minFilter":9987}],"buffers":[{"byteLength":48474,"uri":"metal_jerrycan.bin"}]}