{"asset":{"generator":"Khronos glTF Blender I/O v3.6.27","version":"2.0"},"scene":0,"scenes":[{"name":"Scene","nodes":[0,1,2,3,4,5,6,7]}],"nodes":[{"mesh":0,"name":"metal_trash_can_handle_left","rotation":[0,0,-0.793353259563446,0.6087616086006165],"translation":[0.22699838876724243,0.6497123837471008,-0.00019631585746537894]},{"mesh":1,"name":"metal_trash_can_lid","rotation":[0,0,0.6117722392082214,0.7910341024398804],"translation":[0.12573447823524475,0.2858511209487915,-7.379671842500102e-06]},{"mesh":2,"name":"metal_trash_can","translation":[0.5,0,0]},{"mesh":3,"name":"metal_trash_can_handle_right","rotation":[0,0,-0.793353259563446,0.6087616086006165],"translation":[0.7945746779441833,0.6497123837471008,-0.00019631585746537894]},{"mesh":4,"name":"metal_trash_can_rust","translation":[-0.5,0,0]},{"mesh":5,"name":"metal_trash_can_rust_handle_left","rotation":[0,0,-0.793353259563446,0.6087616086006165],"translation":[-0.7730016112327576,0.6497123837471008,-0.00019631585746537894]},{"mesh":6,"name":"metal_trash_can_rust_handle_right","rotation":[0,0,-0.32344791293144226,0.9462459683418274],"translation":[-0.22699832916259766,0.6497123837471008,-0.00019631585746537894]},{"mesh":7,"name":"metal_trash_can_rust_lid","rotation":[0,0,0.6117722392082214,0.7910341024398804],"translation":[-0.8742655515670776,0.2858511209487915,-7.379671842500102e-06]}],"materials":[{"doubleSided":true,"name":"metal_trash_can","normalTexture":{"index":0},"pbrMetallicRoughness":{"baseColorTexture":{"index":1},"metallicRoughnessTexture":{"index":2}}},{"doubleSided":true,"name":"metal_trash_can_rust","normalTexture":{"index":3},"pbrMetallicRoughness":{"baseColorTexture":{"index":4},"metallicRoughnessTexture":{"index":5}}},{"doubleSided":true,"name":"metal_trash_can_rust","normalTexture":{"index":6},"pbrMetallicRoughness":{"baseColorTexture":{"index":7},"metallicRoughnessTexture":{"index":8}}}],"meshes":[{"name":"Cylinder.003","primitives":[{"attributes":{"POSITION":0,"NORMAL":1,"TEXCOORD_0":2},"indices":3,"material":0}]},{"name":"Cylinder.002","primitives":[{"attributes":{"POSITION":4,"NORMAL":5,"TEXCOORD_0":6},"indices":7,"material":0}]},{"name":"Cylinder","primitives":[{"attributes":{"POSITION":8,"NORMAL":9,"TEXCOORD_0":10},"indices":11,"material":0}]},{"name":"Cylinder.001","primitives":[{"attributes":{"POSITION":12,"NORMAL":13,"TEXCOORD_0":14},"indices":3,"material":0}]},{"name":"Cylinder.005","primitives":[{"attributes":{"POSITION":15,"NORMAL":16,"TEXCOORD_0":17},"indices":18,"material":1}]},{"name":"Cylinder.007","primitives":[{"attributes":{"POSITION":19,"NORMAL":20,"TEXCOORD_0":21},"indices":22,"material":2}]},{"name":"Cylinder.008","primitives":[{"attributes":{"POSITION":23,"NORMAL":24,"TEXCOORD_0":25},"indices":26,"material":2}]},{"name":"Cylinder.006","primitives":[{"attributes":{"POSITION":27,"NORMAL":28,"TEXCOORD_0":29},"indices":30,"material":2}]}],"textures":[{"sampler":0,"source":0},{"sampler":0,"source":1},{"sampler":0,"source":2},{"sampler":0,"source":3},{"sampler":0,"source":4},{"sampler":0,"source":5},{"sampler":0,"source":3},{"sampler":0,"source":4},{"sampler":0,"source":5}],"images":[{"mimeType":"image/jpeg","name":"metal_trash_can_nor_gl","uri":"textures/metal_trash_can_nor_gl_1k.jpg"},{"mimeType":"image/jpeg","name":"metal_trash_can_diff","uri":"textures/metal_trash_can_diff_1k.jpg"},{"mimeType":"image/jpeg","name":"metal_trash_can_metal-metal_trash_can_rough","uri":"textures/metal_trash_can_arm_1k.jpg"},{"mimeType":"image/jpeg","name":"metal_trash_can_rust_nor_gl","uri":"textures/metal_trash_can_rust_nor_gl_1k.jpg"},{"mimeType":"image/jpeg","name":"metal_trash_can_rust_diff","uri":"textures/metal_trash_can_rust_diff_1k.jpg"},{"mimeType":"image/jpeg","name":"metal_trash_can_rust_metal-metal_trash_can_rust_rough","uri":"textures/metal_trash_can_rust_arm_1k.jpg"}],"accessors":[{"bufferView":2,"componentType":5126,"count":37,"max":[0.0050559029914438725,0.005512724630534649,0.09148075431585312],"min":[-0.06658053398132324,-0.06788074970245361,-0.0914820060133934],"type":"VEC3","byteOffset":0},{"bufferView":0,"componentType":5126,"count":37,"type":"VEC3","byteOffset":0},{"bufferView":1,"componentType":5126,"count":37,"type":"VEC2","byteOffset":0},{"bufferView":15,"componentType":5123,"count":312,"type":"SCALAR","byteOffset":0,"normalized":false},{"bufferView":6,"componentType":5126,"count":248,"max":[0.2781137526035309,0.07810896635055542,0.27816256880760193],"min":[-0.2781890332698822,-0.04967131093144417,-0.27814462780952454],"type":"VEC3","byteOffset":0},{"bufferView":4,"componentType":5126,"count":248,"type":"VEC3","byteOffset":0},{"bufferView":5,"componentType":5126,"count":248,"type":"VEC2","byteOffset":0},{"bufferView":7,"componentType":5123,"count":2172,"type":"SCALAR","byteOffset":0,"normalized":false},{"bufferView":10,"componentType":5126,"count":718,"max":[0.3017532527446747,0.9062314629554749,0.2816088795661926],"min":[-0.3017532527446747,0.0029610854107886553,-0.28138187527656555],"type":"VEC3","byteOffset":0},{"bufferView":8,"componentType":5126,"count":718,"type":"VEC3","byteOffset":0},{"bufferView":9,"componentType":5126,"count":718,"type":"VEC2","byteOffset":0},{"bufferView":11,"componentType":5123,"count":5700,"type":"SCALAR","byteOffset":0,"normalized":false},{"bufferView":14,"componentType":5126,"count":48,"max":[0.01311265304684639,0.00987212173640728,0.09289463609457016],"min":[-0.08570295572280884,-0.053439583629369736,-0.09289468079805374],"type":"VEC3","byteOffset":0},{"bufferView":12,"componentType":5126,"count":48,"type":"VEC3","byteOffset":0},{"bufferView":13,"componentType":5126,"count":48,"type":"VEC2","byteOffset":0},{"bufferView":18,"componentType":5126,"count":509,"max":[0.3042812645435333,0.9061545133590698,0.2746182680130005],"min":[-0.3049502670764923,5.5736483773216605e-05,-0.27658307552337646],"type":"VEC3","byteOffset":0},{"bufferView":16,"componentType":5126,"count":509,"type":"VEC3","byteOffset":0},{"bufferView":17,"componentType":5126,"count":509,"type":"VEC2","byteOffset":0},{"bufferView":19,"componentType":5123,"count":3705,"type":"SCALAR","byteOffset":0,"normalized":false},{"bufferView":22,"componentType":5126,"count":42,"max":[0.0050559029914438725,0.0055135516449809074,0.09148088097572327],"min":[-0.0748867616057396,-0.0727912038564682,-0.09148214012384415],"type":"VEC3","byteOffset":0},{"bufferView":20,"componentType":5126,"count":42,"type":"VEC3","byteOffset":0},{"bufferView":21,"componentType":5126,"count":42,"type":"VEC2","byteOffset":0},{"bufferView":23,"componentType":5123,"count":336,"type":"SCALAR","byteOffset":0,"normalized":false},{"bufferView":26,"componentType":5126,"count":39,"max":[0.06462547928094864,0.0054174489341676235,0.09170167148113251],"min":[-0.005055942106992006,-0.06738009303808212,-0.09170163422822952],"type":"VEC3","byteOffset":0},{"bufferView":24,"componentType":5126,"count":39,"type":"VEC3","byteOffset":0},{"bufferView":25,"componentType":5126,"count":39,"type":"VEC2","byteOffset":0},{"bufferView":27,"componentType":5123,"count":336,"type":"SCALAR","byteOffset":0,"normalized":false},{"bufferView":30,"componentType":5126,"count":151,"max":[0.27688923478126526,0.06167127192020416,0.26637449860572815],"min":[-0.2786388099193573,-0.037226222455501556,-0.26444011926651],"type":"VEC3","byteOffset":0},{"bufferView":28,"componentType":5126,"count":151,"type":"VEC3","byteOffset":0},{"bufferView":29,"componentType":5126,"count":151,"type":"VEC2","byteOffset":0},{"bufferView":31,"componentType":5123,"count":1284,"type":"SCALAR","byteOffset":0,"normalized":false}],"bufferViews":[{"buffer":0,"byteOffset":0,"byteLength":444,"target":34962},{"buffer":0,"byteOffset":444,"byteLength":296,"target":34962},{"buffer":0,"byteOffset":740,"byteLength":444,"target":34962},{"buffer":0,"byteOffset":1184,"byteLength":612,"target":34963},{"buffer":0,"byteOffset":1796,"byteLength":2976,"target":34962},{"buffer":0,"byteOffset":4772,"byteLength":1984,"target":34962},{"buffer":0,"byteOffset":6756,"byteLength":2976,"target":34962},{"buffer":0,"byteOffset":9732,"byteLength":4344,"target":34963},{"buffer":0,"byteOffset":14076,"byteLength":8616,"target":34962},{"buffer":0,"byteOffset":22692,"byteLength":5744,"target":34962},{"buffer":0,"byteOffset":28436,"byteLength":8616,"target":34962},{"buffer":0,"byteOffset":37052,"byteLength":11400,"target":34963},{"buffer":0,"byteOffset":48452,"byteLength":576,"target":34962},{"buffer":0,"byteOffset":49028,"byteLength":384,"target":34962},{"buffer":0,"byteOffset":49412,"byteLength":576,"target":34962},{"buffer":0,"byteOffset":49988,"byteLength":624,"target":34963},{"buffer":0,"byteOffset":50612,"byteLength":6108,"target":34962},{"buffer":0,"byteOffset":56720,"byteLength":4072,"target":34962},{"buffer":0,"byteOffset":60792,"byteLength":6108,"target":34962},{"buffer":0,"byteOffset":66900,"byteLength":7410,"target":34963},{"buffer":0,"byteOffset":74312,"byteLength":504,"target":34962},{"buffer":0,"byteOffset":74816,"byteLength":336,"target":34962},{"buffer":0,"byteOffset":75152,"byteLength":504,"target":34962},{"buffer":0,"byteOffset":75656,"byteLength":672,"target":34963},{"buffer":0,"byteOffset":76328,"byteLength":468,"target":34962},{"buffer":0,"byteOffset":76796,"byteLength":312,"target":34962},{"buffer":0,"byteOffset":77108,"byteLength":468,"target":34962},{"buffer":0,"byteOffset":77576,"byteLength":672,"target":34963},{"buffer":0,"byteOffset":78248,"byteLength":1812,"target":34962},{"buffer":0,"byteOffset":80060,"byteLength":1208,"target":34962},{"buffer":0,"byteOffset":81268,"byteLength":1812,"target":34962},{"buffer":0,"byteOffset":83080,"byteLength":2568,"target":34963}],"samplers":[{"magFilter":9729,"minFilter":9987}],"buffers":[{"byteLength":85648,"uri":"metal_trash_can.bin"}]}